:SAMPLES-PER-SECOND 30
:FRAME-RANGE 1-2643
:FULLY-SPECIFIED
:DEGREES
992
root  46.3758 37.6024 67.095 -12.1517 -69.5845 12.782
RightUpLeg  -6.16435 16.3819 -4.90947
RightLeg  40.2289 -4.66906 -4.49873
RightFoot  -22.7309 0.90178 10.5672
RightToes  7.56698e-010 0 -3.6325e-017
Spine  11.6628 -0.120999 -1.99208
Spine1  -0.56981 -0.641774 0.94794
HEad  -7.59622 -39.9321 7.69332
LeftShoulder1  1.35607 -0.117161 -31.3954
LeftArm  15.452 20.1745 -33.274
LeftForeArm  7.66 -1.81483 -18.5374
LeftHand  0.447407 -0.223795 -9.28062
RightShoulder  8.8547 11.8379 50.5423
RightArm  29.3362 4.36826 20.9728
RightForeArm  9.30381 33.4958 6.917
RightHand  0.604455 5.37155 6.1885
LeftUpLeg  -14.3785 18.1931 8.34418
LeftLeg  19.8471 -9.49042 -3.45301
LeftFoot  -1.98261 1.21691 -14.6574
LeftToes  1.48244e-010 1.61973e-010 3.308e-011
993
root  46.1848 37.499 68.1249 -17.3809 -72.2785 18.2719
RightUpLeg  -11.0463 10.6337 -7.77275
RightLeg  48.6648 -5.46468 -6.95568
RightFoot  -17.7695 0.544546 11.8128
RightToes  7.56698e-010 0 -3.6325e-017
Spine  12.8015 0.122932 -2.67405
Spine1  -0.974931 -0.193378 -0.895446
HEad  -7.53822 -38.4826 7.95976
LeftShoulder1  1.50737 -0.555055 -31.0869
LeftArm  19.0057 14.7878 -31.7763
LeftForeArm  4.6599 -0.377496 -19.2563
LeftHand  0.410048 -0.0839067 -8.74381
RightShoulder  8.78647 11.4714 51.3689
RightArm  28.4299 3.87678 20.5621
RightForeArm  8.09611 30.6856 6.2638
RightHand  0.429739 5.36817 4.31293
LeftUpLeg  -14.3324 19.0591 6.43825
LeftLeg  23.1823 -7.4159 -3.13256
LeftFoot  -4.91136 0.807438 -13.7983
LeftToes  1.48244e-010 1.61973e-010 3.308e-011
994
root  45.9276 37.6709 69.1235 -19.7174 -75.357 20.7098
RightUpLeg  -15.6263 4.29375 -7.43453
RightLeg  54.7893 -9.45162 -14.4423
RightFoot  -9.77615 -0.140211 5.39661
RightToes  7.56698e-010 0 -3.6325e-017
Spine  13.3513 0.0720651 -1.19243
Spine1  -1.13031 0.221111 -2.29237
HEad  -6.95026 -36.441 6.86002
LeftShoulder1  1.54953 -0.686951 -30.9247
LeftArm  20.9536 10.1676 -29.8357
LeftForeArm  1.40229 -1.02555 -19.4011
LeftHand  0.303041 0.154985 -6.79527
RightShoulder  8.79186 11.4622 51.4307
RightArm  29.946 3.17931 20.7372
RightForeArm  3.63461 26.3892 5.48166
RightHand  0.261764 5.19309 2.5573
LeftUpLeg  -12.9915 21.0682 5.98415
LeftLeg  23.7624 -6.3603 -2.71898
LeftFoot  -6.61061 0.586695 -13.2004
LeftToes  1.48244e-010 1.61973e-010 3.308e-011
995
root  45.6159 37.8481 69.9469 -21.6644 -77.7283 23.0802
RightUpLeg  -18.7832 -2.52132 -6.2032
RightLeg  55.8975 -10.1421 -16.0434
RightFoot  -8.74497 -0.171438 4.93866
RightToes  7.56698e-010 0 -3.6325e-017
Spine  13.6282 -0.00145526 -1.21023
Spine1  -1.67057 0.0934479 -1.89156
HEad  -6.20511 -34.317 5.55076
LeftShoulder1  1.54752 -0.708362 -30.6871
LeftArm  13.0358 7.20503 -27.9322
LeftForeArm  7.07556 -0.705077 -18.6445
LeftHand  0.224594 0.304514 -5.21416
RightShoulder  8.62766 11.308 51.0047
RightArm  34.1322 2.52416 20.9484
RightForeArm  -2.82415 22.3459 5.48367
RightHand  0.148269 4.48933 1.45387
LeftUpLeg  -11.9263 22.1465 5.56422
LeftLeg  23.6383 -5.37486 -2.23205
LeftFoot  -7.89581 0.448061 -13.2814
LeftToes  1.48244e-010 1.61973e-010 3.308e-011
996
root  45.2378 38.1304 70.6174 -24.447 -80.0827 26.5282
RightUpLeg  -21.0933 -7.96999 -3.82666
RightLeg  52.7777 -8.98562 -12.8194
RightFoot  -9.34846 -0.179154 6.63704
RightToes  7.56698e-010 0 -3.6325e-017
Spine  13.5525 0.0412205 -1.4553
Spine1  -2.22642 0.0521803 -1.38253
HEad  -5.82338 -32.5935 4.87789
LeftShoulder1  1.50566 -0.661392 -30.089
LeftArm  9.06895 5.0315 -26.4552
LeftForeArm  9.45044 -2.93706 -17.6095
LeftHand  0.161534 0.0804097 -3.57355
RightShoulder  8.40822 10.9317 51.0052
RightArm  33.1709 1.96786 19.8356
RightForeArm  -1.7933 18.4475 8.67438
RightHand  0.154999 4.35918 1.56192
LeftUpLeg  -10.3398 23.961 5.27211
LeftLeg  21.8512 -4.91142 -1.82719
LeftFoot  -8.05128 0.428271 -13.1913
LeftToes  1.48244e-010 1.61973e-010 3.308e-011
997
root  44.8145 38.4469 71.1882 -30.3193 -82.2689 33.0959
RightUpLeg  -22.9297 -12.0379 -1.02404
RightLeg  47.8554 -9.85844 -11.7755
RightFoot  -10.3489 -0.127101 6.54449
RightToes  7.56698e-010 0 -3.6325e-017
Spine  13.3889 0.0511901 -1.70747
Spine1  -2.67683 0.0284154 -1.09005
HEad  -5.87732 -30.9191 4.85797
LeftShoulder1  1.45939 -0.624967 -29.274
LeftArm  9.27249 3.37909 -25.2937
LeftForeArm  6.5791 -7.52361 -15.9382
LeftHand  0.147294 -0.0899333 -3.13657
RightShoulder  8.22589 10.654 50.8815
RightArm  23.6326 1.886 18.4722
RightForeArm  9.5264 11.4862 13.5497
RightHand  0.23393 4.7964 2.36551
LeftUpLeg  -8.34151 24.7973 5.0935
LeftLeg  19.1935 -3.3841 -1.51399
LeftFoot  -7.53112 0.49846 -13.5819
LeftToes  1.48244e-010 1.61973e-010 3.308e-011
